<?xml version="1.0" standalone="no"?>
<svg viewBox="0.0 0.0 440.0 462.59998321533203" style="background-color:#4A5963" version="1.1" xmlns="http://www.w3.org/2000/svg" xmlns:xlink="http://www.w3.org/1999/xlink" xml:space="preserve" x="31.0px" y="31.0px" width="378.0" height="400.59998321533203">
<g transform="matrix(1.0, 0.0, 0.0, 1.0, 0.0, 0.0)"></g>
<g transform="matrix(1.0, 0.0, 0.0, 1.0, 0.0, 0.0)"><path d="M 117.0,299.6999969482422 L 117.0,299.6999969482422 C 174.0,299.6999969482422 202.0,218.6999969482422 259.0,218.6999969482422 L 296.0,218.6999969482422 " stroke="#E89969" fill="none" stroke-width="6.0" stroke-dasharray="" stroke-dashoffset="0.0" stroke-linecap="round"></path></g>
<g transform="matrix(1.0, 0.0, 0.0, 1.0, 0.0, 0.0)"><path d="M 117.0,299.6999969482422 L 117.0,299.6999969482422 C 174.0,299.6999969482422 202.0,379.6999969482422 259.0,379.6999969482422 L 296.0,379.6999969482422 " stroke="#915C9E" fill="none" stroke-width="6.0" stroke-dasharray="" stroke-dashoffset="0.0" stroke-linecap="round"></path></g>
<g transform="matrix(1.0, 0.0, 0.0, 1.0, 0.0, 0.0)"><path d="M 113.0,98.69999694824219 L 113.0,98.69999694824219 C 170.0,98.69999694824219 198.0,58.69999694824219 255.0,58.69999694824219 L 292.0,58.69999694824219 " stroke="#E89969" fill="none" stroke-width="6.0" stroke-dasharray="" stroke-dashoffset="0.0" stroke-linecap="round"></path></g>
<g transform="matrix(1.0, 0.0, 0.0, 1.0, 0.0, 0.0)"><path d="M 113.0,98.69999694824219 L 113.0,98.69999694824219 C 170.0,98.69999694824219 198.0,139.6999969482422 255.0,139.6999969482422 L 292.0,139.6999969482422 " stroke="#8FC2E8" fill="none" stroke-width="6.0" stroke-dasharray="" stroke-dashoffset="0.0" stroke-linecap="round"></path></g>
<g transform="matrix(1.0, 0.0, 0.0, 1.0, 0.0, 0.0)"><path d="M 117.0,299.6999969482422 L 117.0,299.6999969482422 C 174.0,299.6999969482422 202.0,273.6999969482422 259.0,273.6999969482422 L 296.0,273.6999969482422 " stroke="#8FC2E8" fill="none" stroke-width="6.0" stroke-dasharray="" stroke-dashoffset="0.0" stroke-linecap="round"></path></g>
<g transform="matrix(1.0, 0.0, 0.0, 1.0, 0.0, 0.0)"><path d="M 296.0,379.6999969482422 L 296.0,379.6999969482422 C 320.0,379.6999969482422 332.0,327.6999969482422 356.0,327.6999969482422 L 409.0,327.6999969482422 " stroke="#915C9E" fill="none" stroke-width="5.0" stroke-dasharray="" stroke-dashoffset="0.0" stroke-linecap="round"></path></g>
<g transform="matrix(1.0, 0.0, 0.0, 1.0, 0.0, 0.0)"><path d="M 296.0,379.6999969482422 L 296.0,379.6999969482422 C 320.0,379.6999969482422 332.0,431.6999969482422 356.0,431.6999969482422 L 409.0,431.6999969482422 " stroke="#915C9E" fill="none" stroke-width="5.0" stroke-dasharray="" stroke-dashoffset="0.0" stroke-linecap="round"></path></g>
<g transform="matrix(1.0, 0.0, 0.0, 1.0, 0.0, 0.0)"><path d="M 292.0,139.6999969482422 L 292.0,139.6999969482422 C 316.0,139.6999969482422 328.0,113.69999694824219 352.0,113.69999694824219 L 405.0,113.69999694824219 " stroke="#8FC2E8" fill="none" stroke-width="5.0" stroke-dasharray="" stroke-dashoffset="0.0" stroke-linecap="round"></path></g>
<g transform="matrix(1.0, 0.0, 0.0, 1.0, 0.0, 0.0)"><path d="M 292.0,139.6999969482422 L 292.0,139.6999969482422 C 316.0,139.6999969482422 328.0,165.6999969482422 352.0,165.6999969482422 L 405.0,165.6999969482422 " stroke="#8FC2E8" fill="none" stroke-width="5.0" stroke-dasharray="" stroke-dashoffset="0.0" stroke-linecap="round"></path></g>
<g transform="matrix(1.0, 0.0, 0.0, 1.0, 0.0, 0.0)"><path d="M 296.0,218.6999969482422 L 296.0,218.6999969482422 C 320.0,218.6999969482422 332.0,218.6999969482422 356.0,218.6999969482422 L 409.0,218.6999969482422 " stroke="#E89969" fill="none" stroke-width="5.0" stroke-dasharray="" stroke-dashoffset="0.0" stroke-linecap="round"></path></g>
<g transform="matrix(1.0, 0.0, 0.0, 1.0, 0.0, 0.0)"><path d="M 296.0,379.6999969482422 L 296.0,379.6999969482422 C 320.0,379.6999969482422 332.0,379.6999969482422 356.0,379.6999969482422 L 409.0,379.6999969482422 " stroke="#915C9E" fill="none" stroke-width="5.0" stroke-dasharray="" stroke-dashoffset="0.0" stroke-linecap="round"></path></g>
<g transform="matrix(1.0, 0.0, 0.0, 1.0, 0.0, 0.0)"><path d="M 199.0,299.1999969482422 L 199.0,317.6999969482422 C 199.0,323.2228444462422 194.52284749799998,327.6999969482422 189.0,327.6999969482422 L 44.0,327.6999969482422 C 38.477152502,327.6999969482422 34.0,323.2228444462422 34.0,317.6999969482422 L 34.0,280.6999969482422 C 34.0,275.17714945024215 38.477152502,270.6999969482422 44.0,270.6999969482422 L 189.0,270.6999969482422 C 194.52284749799998,270.6999969482422 199.0,275.1771494502422 199.0,280.6999969482422 Z " stroke="none" fill="#F2F2F5"></path><path d="M 199.0,299.1999969482422 L 199.0,317.6999969482422 C 199.0,323.2228444462422 194.52284749799998,327.6999969482422 189.0,327.6999969482422 L 44.0,327.6999969482422 C 38.477152502,327.6999969482422 34.0,323.2228444462422 34.0,317.6999969482422 L 34.0,280.6999969482422 C 34.0,275.17714945024215 38.477152502,270.6999969482422 44.0,270.6999969482422 L 189.0,270.6999969482422 C 194.52284749799998,270.6999969482422 199.0,275.1771494502422 199.0,280.6999969482422 Z " stroke="#F2F2F5" fill="none" stroke-width="7.0" stroke-dasharray="" stroke-dashoffset="0.0" stroke-linecap="round" stroke-linejoin="round"></path></g>
<g transform="matrix(1.0, 0.0, 0.0, 1.0, 0.0, 0.0)"><g transform="translate(53.0 307.6999969482422)"><text fill="#4B4B4B" x="5.130859375" y="0.0" font-family="Helvetica" font-size="24.0">Mind Map A</text></g></g>
<g transform="matrix(1.0, 0.0, 0.0, 1.0, 0.0, 0.0)"><g transform="translate(266.0 211.6999969482422)"><text fill="#F3F3F3" x="5.0" y="0.0" font-family="Helvetica" font-size="20.0">a1</text></g></g>
<g transform="matrix(1.0, 0.0, 0.0, 1.0, 0.0, 0.0)"><g transform="translate(363.0 211.6999969482422)"><text fill="#F3F3F3" x="5.0" y="0.0" font-family="Helvetica" font-size="20.0">a1.1</text></g></g>
<g transform="matrix(1.0, 0.0, 0.0, 1.0, 0.0, 0.0)"><g transform="translate(266.0 266.6999969482422)"><text fill="#F3F3F3" x="5.0" y="0.0" font-family="Helvetica" font-size="20.0">a2</text></g></g>
<g transform="matrix(1.0, 0.0, 0.0, 1.0, 0.0, 0.0)"><g transform="translate(266.0 372.6999969482422)"><text fill="#F3F3F3" x="5.0" y="0.0" font-family="Helvetica" font-size="20.0">a3</text></g></g>
<g transform="matrix(1.0, 0.0, 0.0, 1.0, 0.0, 0.0)"><g transform="translate(363.0 320.6999969482422)"><text fill="#F3F3F3" x="5.0" y="0.0" font-family="Helvetica" font-size="20.0">a3.1</text></g></g>
<g transform="matrix(1.0, 0.0, 0.0, 1.0, 0.0, 0.0)"><g transform="translate(363.0 372.6999969482422)"><text fill="#F3F3F3" x="5.0" y="0.0" font-family="Helvetica" font-size="20.0">a3.2</text></g></g>
<g transform="matrix(1.0, 0.0, 0.0, 1.0, 0.0, 0.0)"><g transform="translate(363.0 424.6999969482422)"><text fill="#F3F3F3" x="5.0" y="0.0" font-family="Helvetica" font-size="20.0">a3.3</text></g></g>
<g transform="matrix(1.0, 0.0, 0.0, 1.0, 0.0, 0.0)"><path d="M 195.00000000000003,99.19999694824219 L 195.00000000000003,117.69999694824219 C 195.00000000000003,123.22284444624219 190.52284749800003,127.69999694824219 185.00000000000003,127.69999694824219 L 41.0,127.69999694824222 C 35.477152502,127.69999694824222 31.0,123.2228444462422 31.0,117.69999694824222 L 31.000000000000004,80.69999694824219 C 31.000000000000004,75.17714945024218 35.477152502,70.69999694824219 41.0,70.69999694824219 L 185.00000000000003,70.69999694824219 C 190.52284749800003,70.69999694824219 195.00000000000003,75.17714945024218 195.00000000000003,80.69999694824219 Z " stroke="none" fill="#F2F2F5"></path><path d="M 195.00000000000003,99.19999694824219 L 195.00000000000003,117.69999694824219 C 195.00000000000003,123.22284444624219 190.52284749800003,127.69999694824219 185.00000000000003,127.69999694824219 L 41.0,127.69999694824222 C 35.477152502,127.69999694824222 31.0,123.2228444462422 31.0,117.69999694824222 L 31.000000000000004,80.69999694824219 C 31.000000000000004,75.17714945024218 35.477152502,70.69999694824219 41.0,70.69999694824219 L 185.00000000000003,70.69999694824219 C 190.52284749800003,70.69999694824219 195.00000000000003,75.17714945024218 195.00000000000003,80.69999694824219 Z " stroke="#F2F2F5" fill="none" stroke-width="7.0" stroke-dasharray="" stroke-dashoffset="0.0" stroke-linecap="round" stroke-linejoin="round"></path></g>
<g transform="matrix(1.0, 0.0, 0.0, 1.0, 0.0, 0.0)"><g transform="translate(50.0 107.69999694824219)"><text fill="#4B4B4B" x="5.3046875" y="0.0" font-family="Helvetica" font-size="24.0">mind map b</text></g></g>
<g transform="matrix(1.0, 0.0, 0.0, 1.0, 0.0, 0.0)"><g transform="translate(262.0 51.69999694824219)"><text fill="#F3F3F3" x="5.0" y="0.0" font-family="Helvetica" font-size="20.0">b1</text></g></g>
<g transform="matrix(1.0, 0.0, 0.0, 1.0, 0.0, 0.0)"><g transform="translate(262.0 132.6999969482422)"><text fill="#F3F3F3" x="5.0" y="0.0" font-family="Helvetica" font-size="20.0">b2</text></g></g>
<g transform="matrix(1.0, 0.0, 0.0, 1.0, 0.0, 0.0)"><g transform="translate(359.0 106.69999694824219)"><text fill="#F3F3F3" x="5.0" y="0.0" font-family="Helvetica" font-size="20.0">b2.1</text></g></g>
<g transform="matrix(1.0, 0.0, 0.0, 1.0, 0.0, 0.0)"><g transform="translate(359.0 158.6999969482422)"><text fill="#F3F3F3" x="5.0" y="0.0" font-family="Helvetica" font-size="20.0">b2.2</text></g></g>
<g transform="matrix(1.0, 0.0, 0.0, 1.0, 0.0, 0.0)"></g>
</svg>